<svg xmlns="http://www.w3.org/2000/svg" viewBox="0 0 159.41 87.62"><defs><style>.cls-1{fill:#db2727;}.cls-2{fill:#fec417;}.cls-3,.cls-4{fill:#fff;}.cls-4{opacity:0;}</style></defs><g id="Layer_2" data-name="Layer 2"><g id="Layer_1-2" data-name="Layer 1"><path class="cls-1" d="M2.48,40.93A33.6,33.6,0,0,1,12.55,26.09c2.65-2.17,7.54-5.43,19.06-7.33,9.21-1.51,20.49-1.8,36.27,1.47,17.77,3.68,19.93,7.45,34.44,10.26,22.13,4.28,28.83,3.12,33.16.91,7-3.53,10.9-9.52,13-13.55a56.46,56.46,0,0,1,9.53,22c1.12,5.77,2.85,14.59-.92,23.64-4.42,10.63-14,15.73-18.32,18C110.36,96,71.1,80.76,60.55,76.66a81.08,81.08,0,0,0-14.47-4.58C31.22,69,18.13,71,12.74,71.89c-3.78.62-6.83,1.33-8.8,1.84C2.18,69.57-3.07,55.75,2.48,40.93Z"/><path class="cls-2" d="M90.92,19.65c2.08,1,7.15,3,12.23,1.51A6.81,6.81,0,0,0,107,18.82a6.91,6.91,0,0,0,1-5.35,6.91,6.91,0,0,1,3.29,3.16c1.14,2.46,0,4.95.42,5.08.61.21,2.72-6.53,6.32-11.54A30.06,30.06,0,0,1,131.59,0a20.18,20.18,0,0,1-.82,12.09c-2.39,5.91-7,8.73-9.35,10.17-6.64,4.07-16.83,6.22-25.14,1.65A20.74,20.74,0,0,1,90.92,19.65Z"/><path class="cls-2" d="M104.1,27.24c5,.51,11.32.21,17-3.16,3.17-1.88,4.26-3.56,7.83-6.19a44.82,44.82,0,0,1,15.94-7.28,17.33,17.33,0,0,1-2.47,11.27c-3.41,5.14-9,6.5-13.33,7.56C118.53,32,109.16,29.24,104.1,27.24Z"/><path class="cls-2" d="M12.21,73.81c-3.51.58-6,2.61-6.27,4.81a4.46,4.46,0,0,0,.64,2.73,4.75,4.75,0,0,0,2.73,1.93c2,.61,3.3-1,6.75-2.25a33,33,0,0,1,4.82-1.12c11.24-2.18,29.07.16,29.07.16A175.28,175.28,0,0,1,70,83.92,102.84,102.84,0,0,0,12.21,73.81Z"/><path class="cls-3" d="M16.27,35.08H34.46v5.26H23v8h8.82v5.25H23V65.74H16.27Z"/><path class="cls-4" d="M37.57,42.14h5.81v5.72q1.57-6,5.61-6a6.12,6.12,0,0,1,1.12.12V48.4a8.12,8.12,0,0,0-1.1-.1q-4.83,0-4.83,7.32V65.81H37.57Z"/><path class="cls-3" d="M58.85,49.66l-6.26-.61a7.68,7.68,0,0,1,3-5.48,10.67,10.67,0,0,1,6.53-1.92,9.86,9.86,0,0,1,5.34,1.27,5.62,5.62,0,0,1,2.54,3,18.6,18.6,0,0,1,.53,5.23v9.44c0,2.94.13,4.69.4,5.25H64.83a13.08,13.08,0,0,1-.33-3.63A7,7,0,0,1,58,66.3a6.23,6.23,0,0,1-4.49-1.65,6.33,6.33,0,0,1-1.73-4.82,7.48,7.48,0,0,1,2.62-6.12c1.74-1.45,4.93-2.31,9.54-2.59v-.89a7.82,7.82,0,0,0-.48-3.29A1.88,1.88,0,0,0,61.63,46Q59.11,46,58.85,49.66ZM64,54.51a8.51,8.51,0,0,0-4.11,1.28A3.77,3.77,0,0,0,58.62,59c0,2,.73,3,2.2,3A2.72,2.72,0,0,0,63,60.62c.65-.89,1-2.54,1-4.94Z"/><path class="cls-4" d="M76.41,34.87l6.42-.21v7.48h4.36v5.2H82.83V56a28.6,28.6,0,0,0,.1,3.13,1.89,1.89,0,0,0,.71,1.19,3.22,3.22,0,0,0,2,.48c.5,0,1.13,0,1.88,0v5a18.55,18.55,0,0,1-4,.49,7.85,7.85,0,0,1-4.6-1.14,5.09,5.09,0,0,1-2-2.89,24.81,24.81,0,0,1-.44-5.51V47.34H73.78v-5.2h2.63Z"/><path class="cls-4" d="M91.13,34.87l6.42-.21v7.48h4.36v5.2H97.55V56a28.6,28.6,0,0,0,.1,3.13,1.84,1.84,0,0,0,.71,1.19,3.21,3.21,0,0,0,2,.48c.5,0,1.13,0,1.88,0v5a18.56,18.56,0,0,1-4,.49,7.82,7.82,0,0,1-4.59-1.14,5.09,5.09,0,0,1-2-2.89,24.21,24.21,0,0,1-.44-5.51V47.34H88.5v-5.2h2.63Z"/><path class="cls-4" d="M111.49,40.19h-6.7V33.66h6.7Zm-6.65,2h6.61V65.81h-6.61Z"/><path class="cls-3" d="M116.3,42.14h6.26v3.23a6,6,0,0,1,5.93-3.7,6.65,6.65,0,0,1,3.83,1,4.65,4.65,0,0,1,1.93,2.66,21.23,21.23,0,0,1,.42,4.93V65.81h-6.61V50.3c0-1.6-.2-2.58-.61-3a2.33,2.33,0,0,0-1.64-.56,2.37,2.37,0,0,0-2.34,1.09,9.89,9.89,0,0,0-.56,4.07V65.81H116.3Z"/><path class="cls-4" d="M145.83,40.19h-6.7V33.66h6.7Zm-6.66,2h6.61V65.81h-6.61Z"/><path class="cls-3" d="M34.65,41.89h7.54a20.37,20.37,0,0,1,3.37.21,5.39,5.39,0,0,1,2.36,1.09,5.89,5.89,0,0,1,1.88,2.42,8.54,8.54,0,0,1,.67,3.46c0,3-1.12,5.1-3.37,6.32l4.41,10.5H45.77L42.56,56.4H39.93v9.49H34.65Zm5.28,3.89v6.73h2.32q3.09,0,3.09-3.46a3.72,3.72,0,0,0-.46-2,2.45,2.45,0,0,0-1.06-1A4.55,4.55,0,0,0,42,45.78Z"/><path class="cls-3" d="M71.81,41.89h15v4.5h-4.9v19.5H76.59V46.39H71.81Z"/><path class="cls-3" d="M87.75,41.89h15v4.5h-4.9v19.5H92.53V46.39H87.75Z"/><path class="cls-3" d="M106.1,41.89h5.28v24H106.1Z"/><path class="cls-3" d="M140.45,41.89h5.28v24h-5.28Z"/></g></g></svg>